<svg width="36" height="36" viewBox="0 0 36 36" fill="none" xmlns="http://www.w3.org/2000/svg">
<circle cx="18" cy="18" r="18" fill="#EDF0F4"/>
<path d="M21.2021 14.0244C21.2021 14.6162 21.0791 15.1289 20.833 15.5625C20.5869 15.9961 20.2529 16.3506 19.8311 16.626C19.415 16.9014 18.9463 17.1035 18.4248 17.2324V17.2852C19.4561 17.4141 20.2383 17.7305 20.7715 18.2344C21.3105 18.7383 21.5801 19.4121 21.5801 20.2559C21.5801 21.0059 21.3955 21.6768 21.0264 22.2686C20.6631 22.8604 20.1006 23.3262 19.3389 23.666C18.5771 24.0059 17.5957 24.1758 16.3945 24.1758C15.6855 24.1758 15.0234 24.1172 14.4082 24C13.7988 23.8887 13.2246 23.7158 12.6855 23.4814V21.1699C13.2363 21.4512 13.8135 21.665 14.417 21.8115C15.0205 21.9521 15.583 22.0225 16.1045 22.0225C17.0771 22.0225 17.7568 21.8555 18.1436 21.5215C18.5361 21.1816 18.7324 20.707 18.7324 20.0977C18.7324 19.7402 18.6416 19.4385 18.46 19.1924C18.2783 18.9463 17.9619 18.7588 17.5107 18.6299C17.0654 18.501 16.4414 18.4365 15.6387 18.4365H14.6631V16.3535H15.6562C16.4473 16.3535 17.0479 16.2803 17.458 16.1338C17.874 15.9814 18.1553 15.7764 18.3018 15.5186C18.4541 15.2549 18.5303 14.9561 18.5303 14.6221C18.5303 14.165 18.3896 13.8076 18.1084 13.5498C17.8271 13.292 17.3584 13.1631 16.7021 13.1631C16.292 13.1631 15.917 13.2158 15.5771 13.3213C15.2432 13.4209 14.9414 13.5439 14.6719 13.6904C14.4023 13.8311 14.165 13.9688 13.96 14.1035L12.7031 12.2314C13.207 11.8682 13.7959 11.5664 14.4697 11.3262C15.1494 11.0859 15.958 10.9658 16.8955 10.9658C18.2197 10.9658 19.2686 11.2324 20.042 11.7656C20.8154 12.2988 21.2021 13.0518 21.2021 14.0244Z" fill="#B3AFC1"/>
</svg>
