<svg width="36" height="36" viewBox="0 0 36 36" fill="none" xmlns="http://www.w3.org/2000/svg">
<circle cx="18" cy="18" r="18" fill="#EDF0F4"/>
<path d="M21.7031 24H12.7207V22.1104L15.9463 18.8496C16.5967 18.1816 17.1182 17.625 17.5107 17.1797C17.9092 16.7285 18.1963 16.3184 18.3721 15.9492C18.5537 15.5801 18.6445 15.1846 18.6445 14.7627C18.6445 14.2529 18.501 13.8721 18.2139 13.6201C17.9326 13.3623 17.5547 13.2334 17.0801 13.2334C16.582 13.2334 16.0986 13.3477 15.6299 13.5762C15.1611 13.8047 14.6719 14.1299 14.1621 14.5518L12.6855 12.8027C13.0547 12.4863 13.4443 12.1875 13.8545 11.9062C14.2705 11.625 14.751 11.3994 15.2959 11.2295C15.8467 11.0537 16.5059 10.9658 17.2734 10.9658C18.1172 10.9658 18.8408 11.1182 19.4443 11.4229C20.0537 11.7275 20.5225 12.1436 20.8506 12.6709C21.1787 13.1924 21.3428 13.7842 21.3428 14.4463C21.3428 15.1553 21.2021 15.8027 20.9209 16.3887C20.6396 16.9746 20.2295 17.5547 19.6904 18.1289C19.1572 18.7031 18.5127 19.3389 17.7568 20.0361L16.1045 21.5918V21.7148H21.7031V24Z" fill="#B3AFC1"/>
</svg>
